<?xml version="1.0" encoding="UTF-8" standalone="no"?>
<svg
   version="1.0"
   width="1219.3523pt"
   height="1234.4778pt"
   viewBox="0 0 1219.3523 1234.4778"
   preserveAspectRatio="xMidYMid meet"
   id="svg8"
   sodipodi:docname="close.svg"
   inkscape:version="1.1.1 (3bf5ae0d25, 2021-09-20)"
   xmlns:inkscape="http://www.inkscape.org/namespaces/inkscape"
   xmlns:sodipodi="http://sodipodi.sourceforge.net/DTD/sodipodi-0.dtd"
   xmlns="http://www.w3.org/2000/svg"
   xmlns:svg="http://www.w3.org/2000/svg">
  <defs
     id="defs12" />
  <sodipodi:namedview
     id="namedview10"
     pagecolor="#ffffff"
     bordercolor="#666666"
     borderopacity="1.0"
     inkscape:pageshadow="2"
     inkscape:pageopacity="0.0"
     inkscape:pagecheckerboard="0"
     inkscape:document-units="pt"
     showgrid="false"
     inkscape:zoom="0.51152344"
     inkscape:cx="812.2795"
     inkscape:cy="832.80641"
     inkscape:window-width="3840"
     inkscape:window-height="2099"
     inkscape:window-x="0"
     inkscape:window-y="0"
     inkscape:window-maximized="1"
     inkscape:current-layer="g6" />
  <metadata
     id="metadata2">
Created by potrace 1.15, written by Peter Selinger 2001-2017
</metadata>
  <g
     transform="matrix(0.1,0,0,-0.1,-30.5,1264.615)"
     fill="#000000"
     stroke="none"
     id="g6">
    <path
       d="m 1395,12634 c -85,-19 -167,-51 -243,-95 -69,-41 -639,-599 -707,-694 -101,-141 -140,-263 -140,-440 0,-169 36,-293 125,-427 29,-43 705,-726 2149,-2170 L 4985,6400 2574,3988 C 1218,2630 450,1855 427,1819 339,1682 306,1570 306,1400 c -1,-181 37,-302 139,-445 68,-95 488,-503 557,-544 273,-159 604,-143 853,42 22,17 986,976 2143,2131 L 6400,4985 8803,2584 C 9959,1429 10923,470 10945,453 c 69,-51 130,-82 224,-113 208,-70 431,-44 629,71 69,41 489,449 557,544 101,141 140,263 140,440 0,166 -36,290 -121,422 -25,39 -746,767 -2148,2171 l -2411,2412 2407,2408 c 2207,2208 2162,2161 2219,2303 75,187 77,392 4,572 -53,132 226,-143 -315,400 -289,291 -252,248 -285,272 -141,101 -263,140 -440,140 -166,0 -289,-35 -420,-120 -41,-26 -724,-702 -2172,-2149 L 6550,7965 4138,10376 c -1454,1452 -2132,2123 -2173,2150 -64,41 -149,78 -230,101 -79,22 -258,26 -340,7 z"
       id="path4"
       sodipodi:nodetypes="cccsccccccccccccccccsccccccccsccccccc" />
  </g>
</svg>
